<svg xmlns="http://www.w3.org/2000/svg" viewBox="0 0 324.21 108.49"><defs><style>.cls-1{fill:#fff;}</style></defs><title>barrieing-logo</title><g id="Layer_2" data-name="Layer 2"><g id="Layer_1-2" data-name="Layer 1"><path class="cls-1" d="M236.86,50.33h13.66v4.91a14.84,14.84,0,0,1,5.66-4.57,17.65,17.65,0,0,1,6.71-1.17,16.82,16.82,0,0,1,7,1.32,14,14,0,0,1,4.94,3.74,10.7,10.7,0,0,1,2.26,4.37,23,23,0,0,1,.6,5.51V89H264V69.49a20.79,20.79,0,0,0-.42-4.64A5.75,5.75,0,0,0,262.14,62a5.28,5.28,0,0,0-2-1.28,7.67,7.67,0,0,0-2.42-.38,6.71,6.71,0,0,0-5.31,2.08,8.56,8.56,0,0,0-1.85,5.92V89H236.86Z"/><path class="cls-1" d="M324.21,50.33V86.39a40.55,40.55,0,0,1-.37,5.81,24.89,24.89,0,0,1-1.06,4.52,14,14,0,0,1-2.83,4.64,19.18,19.18,0,0,1-4.64,3.74,24.73,24.73,0,0,1-6.14,2.48,30.92,30.92,0,0,1-15.73-.22,22.66,22.66,0,0,1-6.6-3.13,18.25,18.25,0,0,1-4.64-4.68,15.55,15.55,0,0,1-2.42-5.84h15.39q1.44,3.84,6.49,3.84,4.3,0,6.6-2.41a9.37,9.37,0,0,0,2.3-6.72V84.73a21.33,21.33,0,0,1-2.9,2.37,15.8,15.8,0,0,1-2.83,1.55,13.81,13.81,0,0,1-3,.87,21.79,21.79,0,0,1-3.47.26,19.89,19.89,0,0,1-7.62-1.43A17.66,17.66,0,0,1,280.8,78.2a21.72,21.72,0,0,1-1.39-8A22.14,22.14,0,0,1,280.92,62,21,21,0,0,1,285,55.35a18.78,18.78,0,0,1,14-6.08,15,15,0,0,1,11.54,5.14V50.33ZM293.59,69.49a8.86,8.86,0,0,0,.68,3.51,9.07,9.07,0,0,0,1.85,2.83,8.32,8.32,0,0,0,2.79,1.88,8.86,8.86,0,0,0,3.51.68,8.71,8.71,0,0,0,3.43-.68,8.32,8.32,0,0,0,2.79-1.88A9.71,9.71,0,0,0,310.52,73a8.65,8.65,0,0,0,0-6.91,9.64,9.64,0,0,0-1.92-2.79,8.81,8.81,0,0,0-2.83-1.88,8.65,8.65,0,0,0-3.35-.68,8.13,8.13,0,0,0-3.4.72,9.65,9.65,0,0,0-2.79,1.88,8.73,8.73,0,0,0-1.92,2.75A8.17,8.17,0,0,0,293.59,69.49Z"/><path class="cls-1" d="M202.17,24.28c.41-11.14,4.81-18.14,13.44-22.07C224-1.61,232.13-.45,239.19,5.47c7.38,6.18,9.95,14.26,7.22,23.54a40.94,40.94,0,0,1-5.08,10.53c-4.22,6.47-8.79,12.71-13.33,19-2,2.78-4.22,3-6,.46-6-8.75-12-17.54-17.51-26.59C202.84,29.64,202.64,26,202.17,24.28Zm22.58,28.53c6.25-8.43,12.56-16,15.84-25.44a16,16,0,0,0-6.18-18.09,16.71,16.71,0,0,0-20,.67,15.86,15.86,0,0,0-5,18.41,77.42,77.42,0,0,0,6.42,11.75C218.46,44.31,221.52,48.27,224.75,52.81Z"/><path class="cls-1" d="M224.74,34.73a12,12,0,0,1-11.86-12,11.74,11.74,0,0,1,12-11.8,12,12,0,0,1,12,12A12.16,12.16,0,0,1,224.74,34.73Zm8.09-12.13a7.93,7.93,0,0,0-8.17-8,8.2,8.2,0,1,0,8.17,8Z"/><path class="cls-1" d="M218.38,89.3V62.59l6.49,8.16,6.49-8.16V89.3Z"/><path class="cls-1" d="M44.08,73.15a15.29,15.29,0,0,1-1.84,7.78A14.52,14.52,0,0,1,37.37,86a21.21,21.21,0,0,1-6.91,2.76,37.35,37.35,0,0,1-7.94.84H0V33.06H22.52a34.8,34.8,0,0,1,6.71.68,19.81,19.81,0,0,1,6.22,2.32,12.46,12.46,0,0,1,6.31,11.53,11.78,11.78,0,0,1-2.55,7.79,14.24,14.24,0,0,1-6.71,4.43V60A15.52,15.52,0,0,1,37,61.45a13.08,13.08,0,0,1,3.67,2.75,12.88,12.88,0,0,1,2.48,3.92A13.15,13.15,0,0,1,44.08,73.15ZM28.59,49.43a4.53,4.53,0,0,0-2.2-4.19,12.83,12.83,0,0,0-6.51-1.32H13.17V55.58h7.35A9.86,9.86,0,0,0,26.47,54,5.34,5.34,0,0,0,28.59,49.43Zm1.83,22.44c0-2.34-.88-4-2.63-4.87a15.37,15.37,0,0,0-7-1.36H13.17V78.58h7.67a21.46,21.46,0,0,0,3.32-.28,10.51,10.51,0,0,0,3.11-1,5.69,5.69,0,0,0,3.15-5.43Z"/><path class="cls-1" d="M50.23,55.26a22.9,22.9,0,0,1,8.18-5A28,28,0,0,1,68,48.55a25.66,25.66,0,0,1,8.51,1.24,12.67,12.67,0,0,1,5.62,3.83,16.42,16.42,0,0,1,3.16,6.55,38.46,38.46,0,0,1,1,9.38v20h-12V85.36H74a9.88,9.88,0,0,1-4.59,3.84,16.4,16.4,0,0,1-6.67,1.35,20.67,20.67,0,0,1-4.95-.63,14.58,14.58,0,0,1-4.67-2.08A11.26,11.26,0,0,1,49.67,84a11.8,11.8,0,0,1-1.36-5.91,10,10,0,0,1,2.36-6.95,15.37,15.37,0,0,1,6.06-4.07A32.13,32.13,0,0,1,65,65.16a84.46,84.46,0,0,1,8.86-.48V64a4.89,4.89,0,0,0-2.07-4.35,9,9,0,0,0-5.12-1.4,12.71,12.71,0,0,0-5.39,1.2,17.29,17.29,0,0,0-4.43,2.88Zm24,17H72.58c-1.43,0-2.88.07-4.35.2a17.27,17.27,0,0,0-3.91.76,7.19,7.19,0,0,0-2.84,1.63,3.79,3.79,0,0,0-1.11,2.84,3.39,3.39,0,0,0,.52,1.91,3.91,3.91,0,0,0,1.31,1.28,5.53,5.53,0,0,0,1.84.68,10.84,10.84,0,0,0,2,.2,8.05,8.05,0,0,0,6.1-2.2,8.19,8.19,0,0,0,2.12-5.94Z"/><path class="cls-1" d="M117,60.61a10,10,0,0,0-1.72-.32c-.56,0-1.1-.08-1.63-.08a9.34,9.34,0,0,0-4.44,1,8.91,8.91,0,0,0-2.87,2.31,8.7,8.7,0,0,0-1.56,2.94,9.83,9.83,0,0,0-.48,2.79V89.6H91.19V49.88H103.8v5.75H104a12.94,12.94,0,0,1,4.32-5,11.12,11.12,0,0,1,6.46-1.93c.54,0,1.05,0,1.56.08a7,7,0,0,1,1.24.24Z"/><path class="cls-1" d="M148.6,60.61a10,10,0,0,0-1.72-.32c-.55,0-1.1-.08-1.63-.08a9.27,9.27,0,0,0-4.43,1,8.84,8.84,0,0,0-2.88,2.31,8.7,8.7,0,0,0-1.56,2.94,9.83,9.83,0,0,0-.48,2.79V89.6H122.81V49.88h12.61v5.75h.16a12.94,12.94,0,0,1,4.32-5,11.14,11.14,0,0,1,6.46-1.93c.54,0,1.06,0,1.56.08a7,7,0,0,1,1.24.24Z"/><path class="cls-1" d="M167.05,37.13a6.76,6.76,0,0,1-.6,2.84,7.28,7.28,0,0,1-1.6,2.27,7.39,7.39,0,0,1-2.4,1.52,7.81,7.81,0,0,1-2.91.56,7.31,7.31,0,0,1-5.35-2.12A6.83,6.83,0,0,1,152,37.13a7,7,0,0,1,.56-2.75,6.54,6.54,0,0,1,1.6-2.28,8.63,8.63,0,0,1,2.39-1.55,7.25,7.25,0,0,1,3-.6,7.61,7.61,0,0,1,2.91.56,7.12,7.12,0,0,1,4,3.79A6.75,6.75,0,0,1,167.05,37.13ZM153,89.6V49.83h13.1V89.6Z"/><path class="cls-1" d="M211.12,70.19v1.6a14.7,14.7,0,0,1-.08,1.52H182.22a7,7,0,0,0,1,3,8.64,8.64,0,0,0,2.16,2.36,10.51,10.51,0,0,0,2.95,1.55,10.32,10.32,0,0,0,3.4.56A11,11,0,0,0,197,79.65a10.36,10.36,0,0,0,3.51-3l9.1,5.75a18.47,18.47,0,0,1-7.38,6.27,24.51,24.51,0,0,1-10.66,2.19,25.55,25.55,0,0,1-8.47-1.39,20.36,20.36,0,0,1-7-4.08,18.77,18.77,0,0,1-4.71-6.58,22,22,0,0,1-1.72-8.95,22.33,22.33,0,0,1,1.68-8.82,19.77,19.77,0,0,1,4.55-6.71,20.3,20.3,0,0,1,6.79-4.27,23.17,23.17,0,0,1,8.46-1.52A21.45,21.45,0,0,1,199.22,50a17.59,17.59,0,0,1,6.31,4.27,19.7,19.7,0,0,1,4.11,6.79A26,26,0,0,1,211.12,70.19Zm-12.06-5a7.88,7.88,0,0,0-1.95-5.35c-1.31-1.49-3.26-2.23-5.87-2.23a10.1,10.1,0,0,0-3.51.59,9.15,9.15,0,0,0-2.8,1.64A8.11,8.11,0,0,0,183,62.25a7.19,7.19,0,0,0-.79,2.91Z"/></g></g></svg>